<svg version="1.1" viewBox="0 0 50 50" xmlns="http://www.w3.org/2000/svg">
    <path d="m25 4a4 4 0 0 0 -3.8672 3h-8.1328c-1.6447 0-3 1.3553-3 3v31c0 1.6447 1.3553 3 3 3h24c1.6447 0 3-1.3553 3-3v-31c0-1.6447-1.3553-3-3-3h-8.1309a4 4 0 0 0 -3.8691 -3zm0 2.5a1.5 1.5 0 0 1 1.5 1.5 1.5 1.5 0 0 1 -1.5 1.5 1.5 1.5 0 0 1 -1.5 -1.5 1.5 1.5 0 0 1 1.5 -1.5zm-12 2.5h2v5h20v-5h2c.5713 0 1 .4287 1 1v31c0 .5713-.4287 1-1 1h-24c-.5713 0-1-.4287-1-1v-31c0-.5713.4287-1 1-1zm2 9v2h20v-2zm0 6v2h20v-2zm0 6v2h20v-2zm0 6v2h20v-2z" fill="#212121"/>
</svg>
