<svg width="233.482" height="64" version="1.1" viewBox="0 0 233.482 64" xmlns="http://www.w3.org/2000/svg">
    <g>
        <rect x="8" y="8" width="48" height="48" ry="2" fill="#1A1A1A" style="paint-order:normal"/>
        <rect x="10" y="16" width="44" height="38" ry="0" fill="#F5F5F5" style="paint-order:normal"/>
        <path d="m18 44h28l6-4-6-4h-28l-6 4z" fill="#006420"/>
        <g fill="#212121">
            <path d="m91.947 20.293q-5.5467-2.7733-11.2-2.7733-4.9067 0-4.9067 3.84 0 3.2 4.32 4.64 7.36 2.24 10.187 5.2267 2.88 2.9867 2.88 7.84 0 11.467-14.507 11.467-6.1867 0-11.04-2.7733v-7.7333q5.0133 3.4133 10.507 3.4133 2.8267 0 4.2667-1.0667 1.4933-1.12 1.4933-3.1467 0-1.76-1.0133-2.88t-3.52-1.92q-6.72-2.1333-9.7067-5.28-2.9867-3.2-2.9867-7.7867 0-5.0133 3.4667-7.8933 3.52-2.9333 10.027-2.9333 6.7733 0 11.733 2.1333z"/>
            <path d="m98.832 50v-27.733h9.0667v27.733zm0-33.067v-6.9333h9.0667v6.9333z"/>
            <path d="m139.69 22.267v25.333q0 7.2-4 10.933-3.9467 3.7333-11.467 3.7333-4.64 0-8.7467-1.0667v-7.0933q3.8933 1.6 8.3733 1.6 3.84 0 5.6-1.8667 1.76-1.8133 1.76-6.1333v-1.5467h-.10666q-2.9867 3.3067-7.7867 3.3067-4.64 0-7.68-3.68-2.9867-3.7333-2.9867-10.187 0-6.6133 2.88-10.24 2.88-3.6267 7.7867-3.6267 2.5067 0 4.3733.96 1.92.96 3.7333 3.0933h.10666l.10667-3.52zm-18.613 13.333q0 3.7333 1.3333 5.6 1.3867 1.8667 3.7333 1.8667 2.08 0 3.5733-1.3867 1.4933-1.44 1.4933-3.3067v-5.1733q0-2.1333-1.4933-3.5733-1.4933-1.4933-3.5733-1.4933-5.0667 0-5.0667 7.4667z"/>
            <path d="m151.42 33.52h9.92q-.0533-5.9733-4.6933-5.9733-2.5067 0-3.7333 1.3867-1.2267 1.3333-1.4933 4.5867zm0 5.12q.37333 3.2 2.1867 4.5867 1.8667 1.3333 5.6533 1.3333 2.9867 0 8.0533-1.4933v6.1867q-4.9067 1.28-9.3333 1.28-7.2533 0-11.2-3.68-3.8933-3.68-3.8933-10.72 0-6.9867 3.4667-10.667 3.52-3.7333 10.133-3.7333 12.907 0 12.907 14.293 0 1.12-.21333 2.6133z"/>
            <path d="m172.85 22.267h8.2133l.10667 3.52h.10666q3.4667-4.0533 8.3733-4.0533 4.8533 0 6.9867 2.7733 2.1867 2.7733 2.1867 9.3333v16.16h-8.4267v-15.893q0-3.2-.85333-4.3733-.85333-1.2267-3.0933-1.2267-1.8667 0-3.4133 1.5467-1.5467 1.4933-1.5467 3.2533v16.693h-8.64z"/>
            <path d="m210.23 33.52h9.92q-.0533-5.9733-4.6933-5.9733-2.5067 0-3.7333 1.3867-1.2267 1.3333-1.4933 4.5867zm0 5.12q.37334 3.2 2.1867 4.5867 1.8667 1.3333 5.6533 1.3333 2.9867 0 8.0533-1.4933v6.1867q-4.9067 1.28-9.3333 1.28-7.2533 0-11.2-3.68-3.8933-3.68-3.8933-10.72 0-6.9867 3.4667-10.667 3.52-3.7333 10.133-3.7333 12.907 0 12.907 14.293 0 1.12-.21334 2.6133z"/>
        </g>
    </g>
</svg>
