<?xml version="1.0" encoding="UTF-8" standalone="no"?>
<!-- Created with Inkscape (http://www.inkscape.org/) -->

<svg
   xmlns:dc="http://purl.org/dc/elements/1.1/"
   xmlns:cc="http://creativecommons.org/ns#"
   xmlns:rdf="http://www.w3.org/1999/02/22-rdf-syntax-ns#"
   xmlns:svg="http://www.w3.org/2000/svg"
   xmlns="http://www.w3.org/2000/svg"
   xmlns:sodipodi="http://sodipodi.sourceforge.net/DTD/sodipodi-0.dtd"
   xmlns:inkscape="http://www.inkscape.org/namespaces/inkscape"
   width="233.48199"
   height="64"
   viewBox="0 0 233.48199 64"
   version="1.1"
   id="SVGRoot"
   inkscape:version="0.92.1 r15371"
   sodipodi:docname="logo_text_black.svg">
  <sodipodi:namedview
     id="base"
     pagecolor="#ffffff"
     bordercolor="#666666"
     borderopacity="1.0"
     inkscape:pageopacity="0.0"
     inkscape:pageshadow="2"
     inkscape:zoom="2.8284271"
     inkscape:cx="218.57304"
     inkscape:cy="-3.8861071"
     inkscape:document-units="px"
     inkscape:current-layer="layer1"
     showgrid="true"
     inkscape:window-width="1366"
     inkscape:window-height="706"
     inkscape:window-x="-8"
     inkscape:window-y="-8"
     inkscape:window-maximized="1"
     inkscape:grid-bbox="true"
     inkscape:snap-text-baseline="true">
    <inkscape:grid
       type="xygrid"
       id="grid5044"
       units="px"
       spacingx="1"
       spacingy="1" />
  </sodipodi:namedview>
  <defs
     id="defs4485" />
  <metadata
     id="metadata4488">
    <rdf:RDF>
      <cc:Work
         rdf:about="">
        <dc:format>image/svg+xml</dc:format>
        <dc:type
           rdf:resource="http://purl.org/dc/dcmitype/StillImage" />
        <dc:title></dc:title>
      </cc:Work>
    </rdf:RDF>
  </metadata>
  <g
     id="layer1"
     inkscape:groupmode="layer"
     inkscape:label="レイヤー 1">
    <rect
       style="opacity:1;vector-effect:none;fill:#1a1a1a;fill-opacity:1;fill-rule:nonzero;stroke:#ffffff;stroke-width:2;stroke-linecap:square;stroke-linejoin:miter;stroke-miterlimit:4;stroke-dasharray:none;stroke-dashoffset:0;stroke-opacity:1;paint-order:markers stroke fill"
       id="rect5046"
       width="48"
       height="48"
       x="8"
       y="8"
       ry="2" />
    <rect
       style="opacity:1;vector-effect:none;fill:#e6e6e6;fill-opacity:1;fill-rule:nonzero;stroke:none;stroke-width:18.89763832;stroke-linecap:square;stroke-linejoin:miter;stroke-miterlimit:4;stroke-dasharray:none;stroke-dashoffset:0;stroke-opacity:1;paint-order:normal"
       id="rect5048"
       width="44"
       height="38"
       x="10"
       y="16"
       ry="0" />
    <path
       style="fill:#008000;stroke:none;stroke-width:1px;stroke-linecap:butt;stroke-linejoin:miter;stroke-opacity:1"
       d="m 18,44 h 28 l 6,-4 -6,-4 H 18 l -6,4 z"
       id="path5050"
       inkscape:connector-curvature="0" />
    <path
       inkscape:connector-curvature="0"
       id="path5058"
       style="font-style:normal;font-variant:normal;font-weight:800;font-stretch:normal;font-size:medium;line-height:25px;font-family:'M+ 1c';-inkscape-font-specification:'M+ 1c Ultra-Bold';text-align:start;letter-spacing:-2px;word-spacing:0px;writing-mode:lr-tb;text-anchor:start;fill:#000000;fill-opacity:1;stroke:#ffffff;paint-order:markers stroke fill;stroke-width:2;stroke-miterlimit:4;stroke-dasharray:none"
       d="m 91.946666,20.293334 q -5.546667,-2.773333 -11.2,-2.773333 -4.906666,0 -4.906666,3.84 0,3.2 4.32,4.64 7.359999,2.24 10.186666,5.226666 2.88,2.986667 2.88,7.84 0,11.466666 -14.506666,11.466666 -6.186667,0 -11.04,-2.773333 V 40.026667 Q 72.693333,43.44 78.186666,43.44 q 2.826667,0 4.266667,-1.066666 1.493333,-1.12 1.493333,-3.146667 0,-1.76 -1.013333,-2.88 -1.013333,-1.12 -3.52,-1.92 -6.72,-2.133333 -9.706666,-5.28 -2.986667,-3.2 -2.986667,-7.786666 0,-5.013334 3.466667,-7.893333 3.519999,-2.933334 10.026666,-2.933334 6.773333,0 11.733333,2.133334 z" />
    <path
       inkscape:connector-curvature="0"
       id="path5060"
       style="font-style:normal;font-variant:normal;font-weight:800;font-stretch:normal;font-size:medium;line-height:25px;font-family:'M+ 1c';-inkscape-font-specification:'M+ 1c Ultra-Bold';text-align:start;letter-spacing:-2px;word-spacing:0px;writing-mode:lr-tb;text-anchor:start;fill:#000000;fill-opacity:1;stroke:#ffffff;paint-order:markers stroke fill;stroke-width:2;stroke-miterlimit:4;stroke-dasharray:none"
       d="M 98.832499,50 V 22.266667 h 9.066671 V 50 Z m 0,-33.066666 v -6.933333 h 9.066671 v 6.933333 z" />
    <path
       inkscape:connector-curvature="0"
       id="path5062"
       style="font-style:normal;font-variant:normal;font-weight:800;font-stretch:normal;font-size:medium;line-height:25px;font-family:'M+ 1c';-inkscape-font-specification:'M+ 1c Ultra-Bold';text-align:start;letter-spacing:-2px;word-spacing:0px;writing-mode:lr-tb;text-anchor:start;fill:#000000;fill-opacity:1;stroke:#ffffff;paint-order:markers stroke fill;stroke-width:2;stroke-miterlimit:4;stroke-dasharray:none"
       d="M 139.68916,22.266667 V 47.6 q 0,7.2 -4,10.933333 -3.94666,3.733333 -11.46666,3.733333 -4.64,0 -8.74667,-1.066666 v -7.093333 q 3.89333,1.6 8.37333,1.6 3.84,0 5.6,-1.866667 1.76,-1.813333 1.76,-6.133333 V 46.16 h -0.10666 q -2.98667,3.306667 -7.78667,3.306667 -4.64,0 -7.68,-3.68 -2.98667,-3.733333 -2.98667,-10.186667 0,-6.613333 2.88,-10.239999 2.88,-3.626667 7.78667,-3.626667 2.50667,0 4.37333,0.96 1.92,0.96 3.73334,3.093333 h 0.10666 l 0.10667,-3.52 z M 121.07583,35.6 q 0,3.733334 1.33333,5.6 1.38667,1.866667 3.73334,1.866667 2.08,0 3.57333,-1.386667 1.49333,-1.44 1.49333,-3.306666 V 33.2 q 0,-2.133333 -1.49333,-3.573333 -1.49333,-1.493333 -3.57333,-1.493333 -5.06667,0 -5.06667,7.466666 z" />
    <path
       inkscape:connector-curvature="0"
       id="path5064"
       style="font-style:normal;font-variant:normal;font-weight:800;font-stretch:normal;font-size:medium;line-height:25px;font-family:'M+ 1c';-inkscape-font-specification:'M+ 1c Ultra-Bold';text-align:start;letter-spacing:-2px;word-spacing:0px;writing-mode:lr-tb;text-anchor:start;fill:#000000;fill-opacity:1;stroke:#ffffff;paint-order:markers stroke fill;stroke-width:2;stroke-miterlimit:4;stroke-dasharray:none"
       d="m 151.41583,33.52 h 9.92 q -0.0533,-5.973333 -4.69333,-5.973333 -2.50667,0 -3.73334,1.386667 -1.22666,1.333333 -1.49333,4.586666 z m 0,5.12 q 0.37333,3.2 2.18667,4.586667 1.86666,1.333333 5.65333,1.333333 2.98667,0 8.05333,-1.493333 v 6.186666 q -4.90666,1.28 -9.33333,1.28 -7.25333,0 -11.2,-3.68 -3.89333,-3.68 -3.89333,-10.719999 0,-6.986667 3.46666,-10.666667 3.52,-3.733333 10.13334,-3.733333 12.90666,0 12.90666,14.293333 0,1.12 -0.21333,2.613333 z" />
    <path
       inkscape:connector-curvature="0"
       id="path5066"
       style="font-style:normal;font-variant:normal;font-weight:800;font-stretch:normal;font-size:medium;line-height:25px;font-family:'M+ 1c';-inkscape-font-specification:'M+ 1c Ultra-Bold';text-align:start;letter-spacing:-2px;word-spacing:0px;writing-mode:lr-tb;text-anchor:start;fill:#000000;fill-opacity:1;stroke:#ffffff;paint-order:markers stroke fill;stroke-width:2;stroke-miterlimit:4;stroke-dasharray:none"
       d="m 172.85333,22.266667 h 8.21333 l 0.10667,3.52 h 0.10666 q 3.46667,-4.053333 8.37334,-4.053333 4.85333,0 6.98666,2.773333 2.18667,2.773334 2.18667,9.333333 V 50 h -8.42667 V 34.106667 q 0,-3.2 -0.85333,-4.373333 -0.85333,-1.226667 -3.09333,-1.226667 -1.86667,0 -3.41334,1.546667 -1.54666,1.493333 -1.54666,3.253333 V 50 h -8.64 z" />
    <path
       inkscape:connector-curvature="0"
       id="path5068"
       style="font-style:normal;font-variant:normal;font-weight:800;font-stretch:normal;font-size:medium;line-height:25px;font-family:'M+ 1c';-inkscape-font-specification:'M+ 1c Ultra-Bold';text-align:start;letter-spacing:-2px;word-spacing:0px;writing-mode:lr-tb;text-anchor:start;fill:#000000;fill-opacity:1;stroke:#ffffff;paint-order:markers stroke fill;stroke-width:2;stroke-miterlimit:4;stroke-dasharray:none"
       d="m 210.22832,33.52 h 9.92 q -0.0533,-5.973333 -4.69333,-5.973333 -2.50667,0 -3.73333,1.386667 -1.22667,1.333333 -1.49334,4.586666 z m 0,5.12 q 0.37334,3.2 2.18667,4.586667 1.86667,1.333333 5.65333,1.333333 2.98667,0 8.05334,-1.493333 v 6.186666 q -4.90667,1.28 -9.33334,1.28 -7.25333,0 -11.2,-3.68 -3.89333,-3.68 -3.89333,-10.719999 0,-6.986667 3.46667,-10.666667 3.52,-3.733333 10.13333,-3.733333 12.90667,0 12.90667,14.293333 0,1.12 -0.21334,2.613333 z" />
  </g>
</svg>
