<svg width="362" height="64" version="1.1" viewBox="0 0 362 64" xmlns="http://www.w3.org/2000/svg">
    <rect x="240" y="4" width="118" height="54" ry="2" fill="#006400"/>
    <g>
        <rect x="8" y="8" width="48" height="48" ry="2" fill="#1a1a1a" stroke-width="2" stroke="#fff" style="paint-order:stroke"/>
        <rect x="10" y="16" width="44" height="38" ry="0" fill="#f5f5f5"/>
        <path d="m18 44h28l6-4-6-4h-28l-6 4z" fill="#006400"/>
    </g>
    <g fill="#fff" aria-label="Sigene">
        <path d="m92.427 20.133q-5.0667-2.5067-10.667-2.5067-2.7733 0-4.2133 1.0667t-1.44 2.88q0 2.9867 4.48 4.2667 7.9467 2.1867 11.147 5.2267 3.2533 3.04 3.2533 7.84 0 5.6533-3.84 8.64-3.84 2.9867-11.36 2.9867-3.36 0-6.9867-1.0133-3.6267-1.0667-6.08-2.72l2.1333-7.0933q5.44 3.7333 11.307 3.7333 2.7733 0 4.16-1.12 1.44-1.1733 1.44-3.2533 0-1.7067-1.1733-2.7733-1.12-1.0667-4-1.92-7.3067-2.1333-10.507-5.1733-3.2-3.0933-3.2-7.6267 0-5.0667 3.7867-8.0533 3.84-2.9867 10.72-2.9867 7.3067 0 12.693 2.56z"/>
        <path d="m100.6 16.933v-6.9333h9.0133v6.9333zm0 33.067v-27.733h9.0133v27.733z"/>
        <path d="m125.35 21.733q5.0667 0 8.4267 4.3733h.10667l.16-3.84h7.9467v24.693q0 7.6267-3.9467 11.467-3.9467 3.84-11.627 3.84-4.9067 0-9.3333-1.6l1.44-6.1867q3.7333 1.5467 7.52 1.5467 4.0533 0 5.8133-2.0267 1.76-1.9733 1.76-6.9333v-1.4933h-.0533q-3.04 3.8933-8.2133 3.8933-4.6933 0-7.84-3.7333-3.0934-3.7333-3.0934-10.133 0-6.6133 2.9333-10.24 2.9867-3.6267 8-3.6267zm-2.7733 13.867q0 3.52 1.44 5.4933 1.4933 1.9733 3.8933 1.9733 2.5067 0 4-1.8667 1.5467-1.8667 1.5467-5.3333v-.53333q0-3.4133-1.5467-5.28-1.4933-1.92-4-1.92-2.5067 0-3.9467 1.92-1.3867 1.8667-1.3867 5.5467z"/>
        <path d="m153.6 33.68h10.987q-.0533-6.1333-5.44-6.1333-2.4533 0-3.8933 1.6-1.44 1.5467-1.6533 4.5333zm.0533 5.28q.37333 2.6133 2.1867 4.1067 1.8667 1.44 4.8 1.44 3.9467 0 7.7333-1.92l1.8667 5.8133q-4.7467 2.1333-10.4 2.1333-6.6133 0-10.667-3.8933-4-3.8933-4-10.507 0-6.6667 3.7333-10.507 3.7333-3.8933 10.027-3.8933 6.4533 0 10.027 3.7333 3.5733 3.68 3.5733 10.56 0 1.6533-.21333 2.9333z"/>
        <path d="m175.98 22.267h7.8933l.21333 3.84h.10667q1.5467-2.0267 3.7867-3.2 2.2933-1.1733 4.6933-1.1733 5.0133 0 7.3067 2.9333 2.2933 2.9333 2.2933 10.027v15.307h-8.4267v-14.4q0-4.32-.90666-5.76-.90667-1.4933-3.2-1.4933-1.9733 0-3.6267 2.1333-1.6 2.1333-1.6 4.96v14.56h-8.5333z"/>
        <path d="m213.56 33.68h10.987q-.0533-6.1333-5.44-6.1333-2.4533 0-3.8933 1.6-1.44 1.5467-1.6533 4.5333zm.0533 5.28q.37333 2.6133 2.1867 4.1067 1.8667 1.44 4.8 1.44 3.9467 0 7.7333-1.92l1.8667 5.8133q-4.7467 2.1333-10.4 2.1333-6.6133 0-10.667-3.8933-4-3.8933-4-10.507 0-6.6667 3.7333-10.507 3.7333-3.8933 10.027-3.8933 6.4533 0 10.027 3.7333 3.5733 3.68 3.5733 10.56 0 1.6533-.21333 2.9333z"/>
    </g>
    <g fill="#fff" aria-label="Beta">
        <path d="m270.32 38.8q0 1.76-.37333 3.3067-.32 1.4933-1.3333 3.0933-1.0133 1.6-2.6667 2.7733-1.6 1.12-4.32 1.8667-2.6667.69333-6.24.69333-4.48 0-8.5333-.90667v-38.187q3.7867-.90667 8-.90667 3.9467 0 6.72.8 2.7733.8 4.1067 2.24 1.3867 1.3867 1.92 2.8267.58667 1.44.58667 3.2 0 6.9333-8.0533 8.9067v.10667q10.187 1.76 10.187 10.187zm-1.0667 0q0-9.6-14.933-9.6h-6.4v19.573q3.4133.69333 7.4667.69333 13.867 0 13.867-10.667zm-21.333-10.667h6.4q6.1333 0 9.44-2.24 3.36-2.24 3.36-6.2933 0-8-12.267-8-3.7867 0-6.9333.69333z"/>
        <path d="m276.25 35.333h21.28q-.10667-6.08-2.72-9.28-2.56-3.2533-7.36-3.2533-5.1733 0-8.1067 3.3067-2.88 3.2533-3.0933 9.2267zm0 1.0667q.0533 6.1333 3.1467 9.6 3.1467 3.4667 8.5867 3.4667 4.6933 0 8.5333-2.3467l.53334.96q-4.16 2.4533-9.0667 2.4533-5.92 0-9.3867-3.84-3.4133-3.8933-3.4133-10.56 0-6.7733 3.2533-10.56 3.2533-3.84 9.0133-3.84 5.3333 0 8.2667 3.7333 2.9333 3.68 2.9333 10.4v.53333z"/>
        <path d="m322.13 48.72.37334 1.0133q-2.24.8-4.8.8-4.1067 0-5.6533-1.7067-1.5467-1.7067-1.5467-6.2933v-18.133h-6.6667v-1.0667h6.6667v-10.133h1.0667v10.133h11.467v1.0667h-11.467v18.133q0 4.2667 1.28 5.6 1.3333 1.3333 4.8533 1.3333 2.2933 0 4.4267-.74667z"/>
        <path d="m349.3 43.867h-.10667q-1.3867 3.0933-4.16 4.9067-2.7733 1.76-6.4533 1.76-4 0-6.4-2.1867-2.4-2.1867-2.4-5.8133 0-4.6933 4.2133-7.2533 4.2667-2.6133 12.053-2.6133h3.2v-.26667q0-5.44-1.8667-7.52-1.8133-2.08-6.6667-2.08-5.0133 0-9.3333 2.5067l-.53333-.90667q4.5867-2.6667 9.8667-2.6667t7.4133 2.3467q2.1867 2.3467 2.1867 8.32v10.133q0 3.7333.8 7.4667h-1.0667q-.69334-3.3067-.74667-6.1333zm-18.453-1.3333q0 3.2 2.08 5.0667t5.6533 1.8667q4.64 0 7.6267-2.9867 3.04-3.04 3.04-7.68v-5.0667h-3.2q-7.2533 0-11.253 2.2933-3.9467 2.2933-3.9467 6.5067z"/>
    </g>
</svg>
